<?xml version="1.0" encoding="utf-8"?>
<!-- Generator: Adobe Illustrator 26.3.1, SVG Export Plug-In . SVG Version: 6.00 Build 0)  -->
<svg version="1.1" id="Warstwa_1" xmlns="http://www.w3.org/2000/svg" xmlns:xlink="http://www.w3.org/1999/xlink" x="0px" y="0px"
	 viewBox="0 0 623 218" style="enable-background:new 0 0 623 218;" xml:space="preserve">
<style type="text/css">
	.st0{fill:#15143B;}
	.st1{fill:#AAA4FF;}
	.st2{fill:url(#SVGID_1_);}
	.st3{fill:#FFFFFF;}
	.st4{fill:url(#SVGID_00000178192999979637594720000004028386654839277446_);}
	.st5{fill:#1D1D1B;}
	.st6{fill:url(#SVGID_00000113351001162437041190000010454348188244864642_);}
</style>
<rect class="st0" width="623" height="218"/>
<g>
	<path class="st1" d="M122.1,120.7c-6.9-3.5-14.4-5.8-22.3-6.9c-1.1-0.1-2.3-0.3-3.4-0.4c-0.1,0-0.3,0-0.4,0l-0.2,0l-5.1-0.4
		l1.9-4.8c0.2-0.5,0.4-0.9,0.5-1.4c8.1-19.8,24.9-34.6,45.3-40.9c2.1-3.7,4.4-7.2,6.9-10.7c-0.8,0-1.6,0-2.5,0
		c-7.7,0-15.2,0.9-22.3,2.7c-31.6,7.8-56.5,31.9-64.7,62.6c-0.2,0.6-0.3,1.2-0.4,1.8c0.3,0,0.6,0,0.9-0.1c1.5-0.1,3.1-0.1,4.7-0.1
		c24.1,0,46,8.9,62.5,23.5c-0.9-6.1-1.4-12.3-1.4-18.6C121.9,124.9,122,122.8,122.1,120.7z"/>
	<linearGradient id="SVGID_1_" gradientUnits="userSpaceOnUse" x1="108.2155" y1="123.8582" x2="175.3063" y2="75.1138">
		<stop  offset="0" style="stop-color:#5B48D9"/>
		<stop  offset="0.2116" style="stop-color:#5C51DD"/>
		<stop  offset="0.5582" style="stop-color:#5F6AE9"/>
		<stop  offset="0.9946" style="stop-color:#6391FC"/>
		<stop  offset="1" style="stop-color:#6392FC"/>
	</linearGradient>
	<path class="st2" d="M169.8,67.9c-5.7-0.8-11.5-0.8-17.2-0.2c-5.7,0.6-11.3,2-16.7,4c-17.5,6.6-31.6,20.1-38.5,36.9
		c0,0.1-0.1,0.1-0.1,0.2c1.1,0.1,2.1,0.2,3.2,0.4c7.8,1,15.3,3.3,22.3,6.6c8.5,4,16,9.5,22.3,16.4c0-4.1,0.3-8.2,0.8-12.2
		c2.2-16.6,8.7-32.4,18.8-45.7c1.7-2.2,3.5-4.3,5.3-6.4C170,67.9,169.9,67.9,169.8,67.9L169.8,67.9z"/>
</g>
<g>
	<path class="st3" d="M179.6,131.6c1.1,4.4,5,5.8,8.1,5.8c2.5,0,5-1,5-2.9c0-1.3-0.8-2.2-2.9-2.9l-6.7-2.8c-9.2-3.2-9.6-9.3-9.6-11
		c0-7.7,6.8-11.8,15.1-11.8c4.4,0,10.3,1.2,13.9,8.1l-8.6,4c-1-3.1-3.8-3.7-5.5-3.7c-2.1,0-4.3,1.2-4.3,3.1c0,1.7,1.7,2.5,3.6,3.3
		l5.8,2.2c9.1,2.6,9.9,8.5,9.9,11.1c0,7.9-7.3,11.9-15.8,11.9c-5.7,0-13.5-1.8-16.1-9.8L179.6,131.6z"/>
	<path class="st3" d="M250.3,106.7v38.5h-11.2v-5.6c-2.8,4-6.5,6.5-12.1,6.5c-11.7,0-18.7-9-18.7-20.2c0-10.8,6.5-19.9,18.5-19.9
		c5.2,0,9.7,2.6,12.3,6.1v-5.2H250.3z M229.4,137c5.5,0,10-3.5,10-10.5c0-7.1-4.3-11.5-10.3-11.5c-6.2,0-9.6,4.9-9.6,10.9
		C219.5,132,223.2,137,229.4,137z"/>
	<path class="st3" d="M265.8,90.2c4,0,7.1,2.6,7.1,6.4c0,3.7-3.2,6.2-7.1,6.2c-4,0-7-2.5-7-6.2C258.7,92.8,261.7,90.2,265.8,90.2z
		 M260.1,145.2v-38.5h11.2v38.5H260.1z"/>
	<path class="st3" d="M281.1,145.2V91h11.2v54.2H281.1z"/>
	<path class="st3" d="M307.7,133c4,0,7.1,2.8,7.1,6.6c0,3.7-3.1,6.5-7.1,6.5c-4,0-7-2.8-7-6.5C300.6,135.8,303.6,133,307.7,133z"/>
	<path class="st3" d="M358,124.6v20.6h-11.1v-20.7c0-5.2-1.5-9.4-6.5-9.4c-4.9,0-6.4,4.3-6.4,9.5v20.6h-11.2v-38.5h11.2v5.2
		c2.5-3.8,6.1-6.1,10.3-6.1c5.8,0,9.8,2.6,11.8,6.5c2.9-5.6,8.5-6.5,12.1-6.5c10.8,0,13.7,8.6,13.7,18.4v20.9h-11.2v-20.7
		c0-5.2-1.5-9.4-6.4-9.4C359.5,115.1,358,119.4,358,124.6z"/>
	<path class="st3" d="M409.9,105.9c11.2,0,21.1,8.1,21.1,20c0,12-9.9,20.1-21.1,20.1c-11.2,0-21.1-8-21.1-20.1
		C388.8,113.9,398.7,105.9,409.9,105.9z M409.9,136.4c5.5,0,10.3-4.5,10.3-10.5c0-5.9-4.7-10.4-10.3-10.4c-5.5,0-10.3,4.4-10.3,10.4
		C399.6,132,404.4,136.4,409.9,136.4z"/>
	<path class="st3" d="M438.3,106.7h11.2v5.2c3.2-4.5,7.3-6.1,11.9-6.1c10.8,0,13.7,8.6,13.7,18.4v20.9h-11.2v-20.7
		c0-5.3-2-9.4-7.1-9.4s-7.3,4.1-7.3,9.5v20.6h-11.2V106.7z"/>
	<path class="st3" d="M521.8,138.5c-5.5,6-12.7,7.6-17.9,7.6c-14.2,0-22-8.9-22-19.9c0-11.3,8.8-20.2,21.2-20.2
		c10.6,0,20.8,7.4,20.8,22.6h-31c0.2,4.8,4.7,8.3,11.8,8.3c4,0,7.9-2,10.6-4.6L521.8,138.5z M493.2,121.8h19.3
		c-0.8-4.9-5.8-6.8-9.5-6.8C499.3,115,494.5,116.6,493.2,121.8z"/>
	<path class="st3" d="M555.5,106.7h12.3l-24.9,56h-11.2l8.8-20.8l-15.8-35.2h12.6l9.1,24.1L555.5,106.7z"/>
</g>
</svg>
